<svg width="32" height="32" viewBox="0 0 32 32" fill="none" xmlns="http://www.w3.org/2000/svg">
<path d="M17.8178 11.4431H17.1312C18.3702 10.9613 19.1517 9.72537 18.9462 8.41201C18.7262 7.00866 17.4552 6 16.0034 6C15.858 6 15.7103 6.01025 15.5621 6.03132C13.9352 6.26085 12.8118 7.69894 13.0538 9.24297C13.2138 10.2647 13.9307 11.0763 14.8688 11.4431H13.7561C12.7865 11.4431 12 12.1995 12 13.1324V20.947H13.9705V26H18.304V20.947H20V13.5424C20 12.3828 19.0232 11.4431 17.8178 11.4431ZM14.5196 8.85625C14.5196 8.85055 14.5196 8.84429 14.5201 8.83859C14.5179 8.71785 14.5359 8.60679 14.5645 8.50769C14.5651 8.50541 14.5656 8.5037 14.5662 8.50199C14.7301 7.89031 15.3095 7.43866 15.9994 7.43866C16.6945 7.43866 17.2772 7.89714 17.4361 8.51623C17.449 8.56009 17.4585 8.60508 17.4658 8.65064C17.4759 8.71443 17.4804 8.77822 17.4787 8.84144C17.4793 8.84657 17.4793 8.85112 17.4793 8.85625C17.4793 9.6388 16.8168 10.2733 15.9994 10.2733C15.182 10.2733 14.5196 9.6388 14.5196 8.85625ZM18.5011 19.4264H16.8045V24.4793H15.4695V19.4264H13.4989V13.1324C13.4989 13.064 13.5989 12.9638 13.7561 12.9638H17.8178C18.1945 12.9638 18.5011 13.2235 18.5011 13.5424V19.4264Z" fill="white"/>
</svg>
