<svg width="32" height="32" viewBox="0 0 32 32" fill="none" xmlns="http://www.w3.org/2000/svg">
<path d="M24 10.8812C24 9.31042 22.7218 8.03294 21.1502 8.03294C19.5786 8.03294 18.3004 9.31042 18.3004 10.8812C18.3004 12.1994 19.2014 13.3108 20.42 13.6342C20.1179 17.2095 17.1317 20.0321 13.4881 20.077C13.2079 19.3929 12.6695 18.8416 11.9943 18.5447V8H9.7117V18.5415C8.70546 18.9812 8 19.9855 8 21.1518C8 22.7225 9.27817 24 10.8498 24C12.0927 24 13.1516 23.2002 13.5403 22.0893C18.3453 22.0161 22.2544 18.1859 22.4513 13.4137C23.3701 12.9406 24 11.9834 24 10.8812ZM10.8498 22.3071C10.2125 22.3071 9.69385 21.7887 9.69385 21.1518C9.69385 20.5149 10.2125 19.9965 10.8498 19.9965C11.487 19.9965 12.0057 20.5149 12.0057 21.1518C12.0057 21.7887 11.487 22.3071 10.8498 22.3071ZM19.9943 10.8812C19.9943 10.2443 20.513 9.72587 21.1502 9.72587C21.7875 9.72587 22.3062 10.2443 22.3062 10.8812C22.3062 11.5181 21.7875 12.0365 21.1502 12.0365C20.513 12.0365 19.9943 11.5181 19.9943 10.8812Z" fill="white"/>
</svg>
