<svg width="32" height="32" viewBox="0 0 32 32" fill="none" xmlns="http://www.w3.org/2000/svg">
<path d="M24.9784 22.0571V13.6407H26.0399C26.4214 13.6407 26.749 13.3749 26.8233 13.0066C26.8976 12.6383 26.6961 12.2695 26.3432 12.1269L16.291 8.05885C16.0961 7.9802 15.877 7.9802 15.6821 8.05994L5.71019 12.1274C5.3584 12.2711 5.15855 12.6394 5.23288 13.0077C5.30665 13.3755 5.63477 13.6407 6.01519 13.6407H6.9478V22.0571H5V24H27V22.0571H24.9784ZM23.0064 22.0571H17.0138V13.6407H23.007L23.0064 22.0571ZM15.9887 9.63669L21.9956 12.0677H10.0303L15.9887 9.63669ZM8.91982 13.6407H15.0418V22.0571H8.91982V13.6407Z" fill="white"/>
</svg>
