<svg width="48" height="48" viewBox="0 0 48 48" fill="none" xmlns="http://www.w3.org/2000/svg">
<path d="M38.9939 13.716C38.9913 11.5015 37.5096 10.0109 35.3097 10.0075C27.9387 9.99556 20.3326 9.99812 12.7027 10.0135C10.4976 10.0194 9.01254 11.5023 9.00657 13.7049C8.99635 18.3369 8.99805 22.6765 9.01169 26.9725C9.01595 28.0444 9.37806 28.9611 10.0605 29.6228C10.7353 30.2768 11.6658 30.6256 12.7504 30.6282C13.3894 30.6307 14.0285 30.6299 14.6905 30.6282H14.8728V30.6631C14.8728 31.0596 14.872 31.4562 14.872 31.8535C14.8694 32.9894 14.8669 34.1636 14.8865 35.3241C14.8907 35.6115 14.9129 36.5751 14.9129 36.5751L14.9452 38L16.127 37.1873C16.1355 37.1822 16.985 36.6007 17.2483 36.3679C18.1796 35.5441 19.1466 34.6769 20.0004 33.9112C21.0645 32.9553 22.2719 31.8723 23.4579 30.832C23.5738 30.7305 23.8098 30.6427 23.9751 30.6418C26.6096 30.6213 29.3139 30.6205 32.0822 30.6213C33.1344 30.6213 34.185 30.6213 35.2364 30.6196C37.4832 30.6171 38.9947 29.1274 38.9973 26.912C38.999 25.2185 38.9998 23.507 38.9998 21.7871C39.0007 19.1104 38.9981 16.4106 38.9939 13.716ZM36.5221 26.9947C36.5204 27.815 36.1319 28.1655 35.2245 28.168C31.2327 28.1783 27.6303 28.1851 23.9615 28.1621C23.0898 28.1612 22.4278 28.406 21.8246 28.9645C20.4775 30.2086 19.1211 31.4221 17.6828 32.7071L17.313 33.038C17.313 31.9507 17.313 30.9172 17.3113 29.8829C17.3113 29.4309 17.3105 28.9184 16.9509 28.5543C16.5837 28.1825 16.0657 28.18 15.6073 28.1774H15.3235C15.0543 28.1774 14.7859 28.1791 14.5226 28.18C13.939 28.1825 13.2778 28.186 12.6507 28.1715C11.8566 28.1544 11.486 27.7809 11.4843 26.9964C11.4741 22.1384 11.4732 17.7562 11.4809 13.5983C11.4826 12.8582 11.9026 12.4497 12.6644 12.4489C20.469 12.442 27.8868 12.4395 35.3387 12.442C36.1072 12.4429 36.5153 12.8428 36.5179 13.5983C36.5332 18.0155 36.5349 22.523 36.5221 26.9947Z" fill="#848C94"/>
<path d="M23.6927 13.6401C20.0026 13.6401 17 16.6452 17 20.3383C17 24.0315 20.0026 27.0365 23.6927 27.0365C27.3829 27.0365 30.3854 24.0315 30.3854 20.3383C30.3854 16.6452 27.3829 13.6401 23.6927 13.6401ZM28.6856 19.7764H26.9662C26.8853 18.464 26.5956 17.2446 26.1287 16.2827C26.0469 16.113 25.96 15.9544 25.8688 15.8061C27.3931 16.5411 28.4905 18.0249 28.6856 19.7764ZM24.4033 25.3157C24.1716 25.3489 23.9338 25.3669 23.6927 25.3669C23.4422 25.3669 23.1968 25.3481 22.9557 25.3123C22.2144 24.6506 21.5677 23.0287 21.5004 20.8994H25.8611C25.7947 23.0321 25.1454 24.6557 24.4033 25.3157ZM21.52 19.7764C21.693 17.1798 22.7367 15.43 23.6816 15.43C24.6265 15.43 25.6694 17.1798 25.8432 19.7764H21.52ZM21.4825 15.8231C21.3956 15.9672 21.313 16.1199 21.2338 16.2827C20.7677 17.2446 20.478 18.464 20.3971 19.7764H18.7007C18.8941 18.0377 19.9762 16.5641 21.4825 15.8231ZM18.6998 20.8994H20.3783C20.4201 22.3201 20.7046 23.652 21.192 24.6966C19.839 23.9164 18.8813 22.5239 18.6998 20.8994ZM26.1628 24.7154C26.6552 23.6682 26.9432 22.3286 26.985 20.9003H28.6856C28.5033 22.5366 27.532 23.9377 26.1628 24.7154Z" fill="#848C94"/>
</svg>
