<svg width="48" height="48" viewBox="0 0 48 48" fill="none" xmlns="http://www.w3.org/2000/svg">
<rect x="5" y="5" width="38" height="38" rx="4" stroke="#FFBF9A" stroke-width="2"/>
<path d="M38.9939 13.716C38.9913 11.5015 37.5096 10.0109 35.3097 10.0075C27.9387 9.99556 20.3326 9.99812 12.7027 10.0135C10.4976 10.0194 9.01254 11.5023 9.00657 13.7049C8.99635 18.3369 8.99805 22.6765 9.01169 26.9725C9.01595 28.0444 9.37806 28.9611 10.0605 29.6228C10.7353 30.2768 11.6658 30.6256 12.7504 30.6282C13.3894 30.6307 14.0285 30.6299 14.6905 30.6282H14.8728V30.6631C14.8728 31.0596 14.872 31.4562 14.872 31.8535C14.8694 32.9894 14.8669 34.1636 14.8865 35.3241C14.8907 35.6115 14.9129 36.5751 14.9129 36.5751L14.9452 38L16.127 37.1873C16.1355 37.1822 16.985 36.6007 17.2483 36.3679C18.1796 35.5441 19.1466 34.6769 20.0004 33.9112C21.0645 32.9553 22.2719 31.8723 23.4579 30.832C23.5738 30.7305 23.8098 30.6427 23.9751 30.6418C26.6096 30.6213 29.3139 30.6205 32.0822 30.6213C33.1344 30.6213 34.185 30.6213 35.2364 30.6196C37.4832 30.6171 38.9947 29.1274 38.9973 26.912C38.999 25.2185 38.9998 23.507 38.9998 21.7871C39.0007 19.1104 38.9981 16.4106 38.9939 13.716ZM36.5221 26.9947C36.5204 27.815 36.1319 28.1655 35.2245 28.168C31.2327 28.1783 27.6303 28.1851 23.9615 28.1621C23.0898 28.1612 22.4278 28.406 21.8246 28.9645C20.4775 30.2086 19.1211 31.4221 17.6828 32.7071L17.313 33.038C17.313 31.9507 17.313 30.9172 17.3113 29.8829C17.3113 29.4309 17.3105 28.9184 16.9509 28.5543C16.5837 28.1825 16.0657 28.18 15.6073 28.1774H15.3235C15.0543 28.1774 14.7859 28.1791 14.5226 28.18C13.939 28.1825 13.2778 28.186 12.6507 28.1715C11.8566 28.1544 11.486 27.7809 11.4843 26.9964C11.4741 22.1384 11.4732 17.7562 11.4809 13.5983C11.4826 12.8582 11.9026 12.4497 12.6644 12.4489C20.469 12.442 27.8868 12.4395 35.3387 12.442C36.1072 12.4429 36.5153 12.8428 36.5179 13.5983C36.5332 18.0155 36.5349 22.523 36.5221 26.9947Z" fill="#F96010"/>
<path d="M24.2465 13.3947C20.8024 13.3947 18 16.1971 18 19.6413C18 23.0854 20.8024 25.8878 24.2465 25.8878C27.6907 25.8878 30.4931 23.0854 30.4931 19.6413C30.4931 16.1971 27.6907 13.3947 24.2465 13.3947ZM28.9066 19.1172H27.3018C27.2263 17.8933 26.9559 16.7562 26.5201 15.8591C26.4438 15.7009 26.3626 15.553 26.2776 15.4146C27.7002 16.1001 28.7245 17.4838 28.9066 19.1172ZM24.9098 24.283C24.6935 24.314 24.4716 24.3307 24.2465 24.3307C24.0127 24.3307 23.7837 24.3132 23.5587 24.2798C22.8668 23.6627 22.2632 22.1502 22.2004 20.1645H26.2704C26.2084 22.1534 25.6024 23.6675 24.9098 24.283ZM22.2187 19.1172C22.3801 16.6957 23.3543 15.0639 24.2362 15.0639C25.1181 15.0639 26.0915 16.6957 26.2537 19.1172H22.2187ZM22.1837 15.4305C22.1026 15.5649 22.0255 15.7072 21.9515 15.8591C21.5165 16.7562 21.2461 17.8933 21.1706 19.1172H19.5873C19.7678 17.4957 20.7777 16.1216 22.1837 15.4305ZM19.5865 20.1645H21.1531C21.1921 21.4894 21.4577 22.7315 21.9125 23.7057C20.6497 22.978 19.7559 21.6794 19.5865 20.1645ZM26.5519 23.7232C27.0116 22.7466 27.2803 21.4973 27.3193 20.1653H28.9066C28.7364 21.6914 27.8298 22.9979 26.5519 23.7232Z" fill="#F96010"/>
</svg>
