<svg width="32" height="32" viewBox="0 0 32 32" fill="none" xmlns="http://www.w3.org/2000/svg">
<path d="M22.9262 14.9713H24L20.5714 8H11.4286L8 14.9713H9.136V20.0681H9.14286V24H22.9221V20.0676H22.9262V14.9713ZM10.6903 15.7675C11.0171 16.0009 11.4171 16.1385 11.8491 16.1385C12.6551 16.1385 13.349 15.6602 13.6658 14.9713H13.6672C13.6699 14.9644 13.6722 14.958 13.675 14.9516C13.6754 14.9506 13.6759 14.9497 13.6763 14.9493C13.7623 14.7314 13.8409 14.5347 13.8409 14.2847C13.8409 14.5328 13.9186 14.7287 14.0032 14.9447H14.0018C14.0046 14.9511 14.0078 14.9575 14.011 14.9639C14.0119 14.9667 14.0128 14.969 14.0142 14.9717H14.0146C14.3342 15.6583 15.0313 16.1344 15.8409 16.1344C16.6505 16.1344 17.3481 15.6583 17.6677 14.9717C17.6677 14.9713 17.6681 14.9704 17.6686 14.9699C17.6722 14.9616 17.6763 14.9534 17.6805 14.9447H17.6786C17.7637 14.7287 17.8414 14.5328 17.8414 14.2847C17.8414 14.5328 17.9191 14.7287 18.0037 14.9447H18.0009C18.3131 15.6459 19.0167 16.1344 19.8345 16.1344C20.4521 16.1344 21.0048 15.8555 21.3728 15.4166V18.9339H10.6903V15.7675ZM17.84 14.1544C17.84 14.1256 17.8391 14.0967 17.8382 14.0682C17.8391 14.0806 17.8405 14.0934 17.8414 14.1058C17.8409 14.1219 17.84 14.1379 17.84 14.1544ZM11.0263 12.3213L11.2411 11.8842L12.389 9.55019H19.611L21.0981 12.574L21.1154 12.6093L21.4953 13.3812L21.515 13.4215H21.5013C21.5104 13.489 21.515 13.5578 21.515 13.6279C21.515 14.1866 21.2178 14.6755 20.773 14.9442C20.5426 15.0836 20.2725 15.1639 19.9835 15.1639C19.6946 15.1639 19.4245 15.0836 19.1941 14.9442C18.7493 14.6755 18.4521 14.1866 18.4521 13.6279C18.4521 13.5578 18.4567 13.489 18.4658 13.4215H18.0151H17.9781H17.7024H17.691H17.3339C17.3344 13.4293 17.3344 13.4376 17.3344 13.4454C17.3344 14.2732 16.6651 14.9442 15.84 14.9442C15.0149 14.9442 14.3461 14.2732 14.3461 13.4454C14.3461 13.4376 14.3461 13.4293 14.3465 13.4215H14.0096H13.9781H13.7024H13.6855H13.4546C13.3431 14.1384 12.725 14.6869 11.979 14.6869C11.2329 14.6869 10.6149 14.1384 10.5033 13.4215L10.4992 13.3931L11.0263 12.3213ZM21.3769 22.4503H10.688V20.4836H21.3774V22.4503H21.3769Z" fill="white"/>
</svg>
