<svg width="48" height="48" viewBox="0 0 48 48" fill="none" xmlns="http://www.w3.org/2000/svg">
<rect x="5" y="5" width="38" height="38" rx="4" stroke="#FFBF9A" stroke-width="2"/>
<path d="M33.9554 26.5067C33.5832 26.214 33.4424 25.8997 33.4514 25.3871C33.4753 24.0962 33.4679 22.7918 33.4605 21.5306L33.4572 20.9507C33.4366 16.9615 31.0692 13.656 27.2567 12.2572C26.8985 10.9632 25.7317 10.0555 24.2972 10.0027C22.7903 9.94588 21.5453 10.8008 21.1229 12.1501C17.3696 13.4089 15.1389 16.0225 14.6671 19.7175C14.4835 21.1563 14.5032 22.5911 14.523 23.9795C14.5296 24.4625 14.537 24.9616 14.5345 25.4447C14.5312 26.0989 14.3583 26.2292 14.2842 26.2852C12.69 27.4897 11.944 29.1804 12.0033 31.4549C12.042 32.9305 12.9313 33.7743 14.4448 33.7743C14.4563 33.7743 14.4687 33.7743 14.481 33.7743C16.0925 33.7599 17.7245 33.7575 19.3377 33.7583C19.751 36.3415 21.6425 38.0003 24.1408 38.0003C24.2676 38.0003 24.3961 37.9963 24.5245 37.9883C26.9413 37.8275 28.7545 36.0744 28.962 33.7615C30.4895 33.7615 32.0162 33.7615 33.5437 33.7599C33.5445 33.7599 33.5453 33.7599 33.5461 33.7599C33.5758 33.7599 33.6062 33.7607 33.6375 33.7607C33.9142 33.7655 34.3325 33.7735 34.7788 33.5879C35.4812 33.2968 35.916 32.677 35.9712 31.8884C36.079 30.3457 35.9893 28.1087 33.9554 26.5067ZM24.4866 36.1592C22.9591 36.26 21.8335 35.3642 21.5478 33.7607C22.3531 33.7615 23.1576 33.7623 23.9637 33.7623H26.4621C26.6333 33.7623 26.8038 33.7623 26.9751 33.7623C26.8713 35.1027 25.8684 36.0664 24.4866 36.1592ZM26.4629 30.8031H23.9646C23.1181 30.8023 22.274 30.8023 21.4292 30.8007C19.3418 30.7983 17.1893 30.7951 15.0582 30.8103C15.1216 29.8034 15.4576 29.1476 16.1551 28.6221C17.0963 27.9119 17.5763 26.8475 17.5829 25.4582C17.5854 24.9488 17.578 24.4353 17.5714 23.9395C17.5524 22.5919 17.5343 21.3194 17.6924 20.0822C18.0243 17.4797 19.5106 15.7874 22.2353 14.9093C22.5993 14.7917 23.7077 14.435 24.0313 13.0394C24.0411 12.9986 24.0519 12.9778 24.051 12.9778C24.0601 12.9722 24.1046 12.9578 24.1828 12.9602C24.2602 12.9634 24.2972 12.9834 24.3022 12.9882C24.3047 12.9914 24.3154 13.0106 24.3219 13.0538C24.5294 14.4662 25.6246 14.8349 25.9853 14.9564C28.7422 15.885 30.3973 18.1315 30.4121 20.9659L30.4154 21.5474C30.4228 22.7918 30.4302 24.0778 30.4072 25.3343C30.3808 26.7643 30.9292 27.9327 32.0384 28.8061C32.6222 29.266 32.903 29.8586 32.9483 30.8015C30.7851 30.8031 28.6244 30.8031 26.4629 30.8031Z" fill="#F96010"/>
</svg>
