<svg width="32" height="32" viewBox="0 0 32 32" fill="none" xmlns="http://www.w3.org/2000/svg">
<path d="M27 13.68H26.9895V8.8864C26.9895 8.3968 26.5804 8 26.0755 8H5.9141C5.4092 8 5 8.3968 5 8.8864V13.68V15.6533V23.1136C5 23.6032 5.4092 24 5.9141 24H26.076C26.5809 24 26.9901 23.6032 26.9901 23.1136V15.6533H27V13.68ZM7.035 9.97333H24.9545V13.68H7.035V9.97333ZM24.9545 22.0267H7.035V15.6533H24.9545V22.0267Z" fill="white"/>
<path d="M11.1942 11.2192H7.75171V12.7803H11.1942V11.2192Z" fill="white"/>
<path d="M14.2961 11.2192H12.2166V12.7803H14.2961V11.2192Z" fill="white"/>
</svg>
