<svg width="48" height="48" viewBox="0 0 48 48" fill="none" xmlns="http://www.w3.org/2000/svg">
<rect x="5" y="5" width="38" height="38" rx="4" stroke="#FFBF9A" stroke-width="2"/>
<path d="M33.8811 28.127C32.1608 26.4137 30.0719 25.2013 27.7949 24.5645C30.1704 23.2314 31.7795 20.6892 31.7795 17.7777C31.7803 13.4887 28.2897 10 24 10C19.7103 10 16.2197 13.4887 16.2197 17.7777C16.2197 20.6892 17.8288 23.2322 20.2043 24.5645C17.9273 25.2021 15.8384 26.4137 14.1181 28.127C11.4773 30.7582 10.0143 34.2596 10 37.9865L13.4946 38C13.5169 32.2318 18.2299 27.5395 24 27.5395C29.7701 27.5395 34.4831 32.2318 34.5054 38L38 37.9865C37.9857 34.2596 36.5227 30.7582 33.8811 28.127ZM24 13.4934C26.3629 13.4934 28.2857 15.4148 28.2857 17.7777C28.2857 20.1405 26.3636 22.0619 24 22.0619C21.6364 22.0619 19.7143 20.1405 19.7143 17.7777C19.7143 15.4148 21.6371 13.4934 24 13.4934Z" fill="#F96010"/>
</svg>
