<svg width="32" height="32" viewBox="0 0 32 32" fill="none" xmlns="http://www.w3.org/2000/svg">
<path d="M16.0409 16.3157C17.4379 15.5736 18.3916 14.1033 18.3916 12.4145C18.3916 9.98013 16.411 8 13.9766 8C11.5423 8 9.56217 9.98013 9.56217 12.4145C9.56217 14.1033 10.5158 15.5736 11.9128 16.3157C10.5768 16.671 9.35156 17.3717 8.34673 18.3731C6.84146 19.8729 6.00837 21.8683 6 23.9926L7.91911 24C7.93191 20.673 10.6497 17.9661 13.9766 17.9661C17.3036 17.9661 20.0213 20.6726 20.0341 24L21.9533 23.9926C21.9449 21.8683 21.1118 19.8729 19.6065 18.3736C18.6017 17.3717 17.3764 16.6714 16.0409 16.3157ZM13.9766 9.91911C15.3525 9.91911 16.472 11.0386 16.472 12.4145C16.472 13.7903 15.3525 14.9098 13.9766 14.9098C12.6008 14.9098 11.4813 13.7903 11.4813 12.4145C11.4813 11.0386 12.6008 9.91911 13.9766 9.91911Z" fill="white"/>
<path d="M21.3904 14.8944C22.4887 14.3053 23.2376 13.146 23.2376 11.8149C23.2376 9.88942 21.6708 8.32263 19.7453 8.32263C19.0436 8.32263 18.367 8.5298 17.7878 8.92248L18.6396 10.1793C18.9664 9.95782 19.3487 9.8407 19.7453 9.8407C20.8338 9.8407 21.7196 10.7264 21.7196 11.8149C21.7196 12.9034 20.8338 13.7892 19.7453 13.7892C19.5308 13.7892 19.3217 13.7552 19.1209 13.6888L18.5545 13.4737L18.4305 15.9646L18.4398 15.9661V15.9666C18.4492 15.9676 18.459 15.9691 18.4684 15.9705L18.7873 16.0183C21.6487 16.5222 23.773 19.0165 23.7843 21.9592L25.7035 21.9518C25.6916 18.9058 23.9605 16.225 21.3904 14.8944Z" fill="white"/>
</svg>
